<mxfile host="Electron" modified="2023-12-17T12:24:54.063Z" agent="Mozilla/5.0 (Windows NT 10.0; Win64; x64) AppleWebKit/537.36 (KHTML, like Gecko) draw.io/22.1.2 Chrome/114.0.5735.289 Electron/25.9.4 Safari/537.36" etag="pZnqHYHXTL_wu6ldf-L8" version="22.1.2" type="device">
  <diagram name="Page-1" id="58cdce13-f638-feb5-8d6f-7d28b1aa9fa0">
    <mxGraphModel dx="1202" dy="2197" grid="1" gridSize="10" guides="1" tooltips="1" connect="1" arrows="1" fold="1" page="1" pageScale="1" pageWidth="1100" pageHeight="850" background="none" math="0" shadow="0">
      <root>
        <mxCell id="0" />
        <mxCell id="1" parent="0" />
        <mxCell id="SsQsYeumKmcOSgVpf9ht-2" value="Admin" style="shape=umlFrame;whiteSpace=wrap;html=1;pointerEvents=0;width=90;height=30;" parent="1" vertex="1">
          <mxGeometry x="1150" y="-761" width="1010" height="170" as="geometry" />
        </mxCell>
        <mxCell id="SsQsYeumKmcOSgVpf9ht-12" style="edgeStyle=orthogonalEdgeStyle;rounded=0;orthogonalLoop=1;jettySize=auto;html=1;" parent="1" source="SsQsYeumKmcOSgVpf9ht-8" target="SsQsYeumKmcOSgVpf9ht-10" edge="1">
          <mxGeometry relative="1" as="geometry" />
        </mxCell>
        <mxCell id="SsQsYeumKmcOSgVpf9ht-8" value="" style="ellipse;html=1;shape=startState;fillColor=#000000;strokeColor=#ff0000;" parent="1" vertex="1">
          <mxGeometry x="1180" y="-673.5" width="30" height="30" as="geometry" />
        </mxCell>
        <mxCell id="SsQsYeumKmcOSgVpf9ht-10" value="Authenticate" style="rounded=1;whiteSpace=wrap;html=1;arcSize=40;fontColor=#000000;fillColor=#ffffc0;strokeColor=#ff0000;" parent="1" vertex="1">
          <mxGeometry x="1260" y="-678.5" width="120" height="40" as="geometry" />
        </mxCell>
        <mxCell id="SsQsYeumKmcOSgVpf9ht-18" style="edgeStyle=orthogonalEdgeStyle;rounded=0;orthogonalLoop=1;jettySize=auto;html=1;exitX=1;exitY=0.5;exitDx=0;exitDy=0;exitPerimeter=0;" parent="1" source="SsQsYeumKmcOSgVpf9ht-13" target="SsQsYeumKmcOSgVpf9ht-17" edge="1">
          <mxGeometry relative="1" as="geometry" />
        </mxCell>
        <mxCell id="4-HbsVXTE3UwJC75fTxS-3" style="edgeStyle=orthogonalEdgeStyle;rounded=0;orthogonalLoop=1;jettySize=auto;html=1;" parent="1" source="SsQsYeumKmcOSgVpf9ht-13" edge="1">
          <mxGeometry relative="1" as="geometry">
            <mxPoint x="1240" y="-658" as="targetPoint" />
            <Array as="points">
              <mxPoint x="1460" y="-720" />
              <mxPoint x="1240" y="-720" />
              <mxPoint x="1240" y="-658" />
            </Array>
          </mxGeometry>
        </mxCell>
        <mxCell id="SsQsYeumKmcOSgVpf9ht-13" value="" style="strokeWidth=2;html=1;shape=mxgraph.flowchart.decision;whiteSpace=wrap;" parent="1" vertex="1">
          <mxGeometry x="1430" y="-688.5" width="60" height="60" as="geometry" />
        </mxCell>
        <mxCell id="SsQsYeumKmcOSgVpf9ht-14" style="edgeStyle=orthogonalEdgeStyle;rounded=0;orthogonalLoop=1;jettySize=auto;html=1;entryX=0.036;entryY=0.507;entryDx=0;entryDy=0;entryPerimeter=0;" parent="1" source="SsQsYeumKmcOSgVpf9ht-10" target="SsQsYeumKmcOSgVpf9ht-13" edge="1">
          <mxGeometry relative="1" as="geometry" />
        </mxCell>
        <mxCell id="SsQsYeumKmcOSgVpf9ht-17" value="Search for Moderator" style="rounded=1;whiteSpace=wrap;html=1;arcSize=40;fontColor=#000000;fillColor=#ffffc0;strokeColor=#ff0000;" parent="1" vertex="1">
          <mxGeometry x="1520" y="-678.5" width="120" height="40" as="geometry" />
        </mxCell>
        <mxCell id="SsQsYeumKmcOSgVpf9ht-23" style="edgeStyle=orthogonalEdgeStyle;rounded=0;orthogonalLoop=1;jettySize=auto;html=1;exitX=1;exitY=0.5;exitDx=0;exitDy=0;exitPerimeter=0;entryX=0;entryY=0.5;entryDx=0;entryDy=0;" parent="1" source="SsQsYeumKmcOSgVpf9ht-20" target="SsQsYeumKmcOSgVpf9ht-22" edge="1">
          <mxGeometry relative="1" as="geometry" />
        </mxCell>
        <mxCell id="SsQsYeumKmcOSgVpf9ht-20" value="" style="strokeWidth=2;html=1;shape=mxgraph.flowchart.decision;whiteSpace=wrap;" parent="1" vertex="1">
          <mxGeometry x="1670" y="-688.5" width="60" height="60" as="geometry" />
        </mxCell>
        <mxCell id="SsQsYeumKmcOSgVpf9ht-21" style="edgeStyle=orthogonalEdgeStyle;rounded=0;orthogonalLoop=1;jettySize=auto;html=1;exitX=1;exitY=0.5;exitDx=0;exitDy=0;entryX=0.071;entryY=0.516;entryDx=0;entryDy=0;entryPerimeter=0;" parent="1" source="SsQsYeumKmcOSgVpf9ht-17" target="SsQsYeumKmcOSgVpf9ht-20" edge="1">
          <mxGeometry relative="1" as="geometry" />
        </mxCell>
        <mxCell id="SsQsYeumKmcOSgVpf9ht-26" style="edgeStyle=orthogonalEdgeStyle;rounded=0;orthogonalLoop=1;jettySize=auto;html=1;" parent="1" source="SsQsYeumKmcOSgVpf9ht-125" target="SsQsYeumKmcOSgVpf9ht-24" edge="1">
          <mxGeometry relative="1" as="geometry" />
        </mxCell>
        <mxCell id="SsQsYeumKmcOSgVpf9ht-22" value="Manage moderator" style="rounded=1;whiteSpace=wrap;html=1;arcSize=40;fontColor=#000000;fillColor=#ffffc0;strokeColor=#ff0000;" parent="1" vertex="1">
          <mxGeometry x="1770" y="-678.5" width="120" height="40" as="geometry" />
        </mxCell>
        <mxCell id="SsQsYeumKmcOSgVpf9ht-24" value="" style="ellipse;html=1;shape=endState;fillColor=#000000;strokeColor=#ff0000;" parent="1" vertex="1">
          <mxGeometry x="2050" y="-672.5" width="30" height="30" as="geometry" />
        </mxCell>
        <mxCell id="SsQsYeumKmcOSgVpf9ht-27" value="Y" style="text;html=1;strokeColor=none;fillColor=none;align=center;verticalAlign=middle;whiteSpace=wrap;rounded=0;" parent="1" vertex="1">
          <mxGeometry x="1711" y="-683.5" width="60" height="30" as="geometry" />
        </mxCell>
        <mxCell id="SsQsYeumKmcOSgVpf9ht-28" value="N" style="text;html=1;strokeColor=none;fillColor=none;align=center;verticalAlign=middle;whiteSpace=wrap;rounded=0;" parent="1" vertex="1">
          <mxGeometry x="1655" y="-711.5" width="60" height="30" as="geometry" />
        </mxCell>
        <mxCell id="SsQsYeumKmcOSgVpf9ht-29" value="Y" style="text;html=1;strokeColor=none;fillColor=none;align=center;verticalAlign=middle;whiteSpace=wrap;rounded=0;" parent="1" vertex="1">
          <mxGeometry x="1470" y="-683.5" width="60" height="30" as="geometry" />
        </mxCell>
        <mxCell id="SsQsYeumKmcOSgVpf9ht-30" value="N" style="text;html=1;strokeColor=none;fillColor=none;align=center;verticalAlign=middle;whiteSpace=wrap;rounded=0;" parent="1" vertex="1">
          <mxGeometry x="1416" y="-711.5" width="60" height="30" as="geometry" />
        </mxCell>
        <mxCell id="SsQsYeumKmcOSgVpf9ht-34" value="Admin" style="shape=umlFrame;whiteSpace=wrap;html=1;pointerEvents=0;width=90;height=30;" parent="1" vertex="1">
          <mxGeometry x="2240" y="-760" width="1000" height="170" as="geometry" />
        </mxCell>
        <mxCell id="SsQsYeumKmcOSgVpf9ht-35" style="edgeStyle=orthogonalEdgeStyle;rounded=0;orthogonalLoop=1;jettySize=auto;html=1;" parent="1" source="SsQsYeumKmcOSgVpf9ht-36" target="SsQsYeumKmcOSgVpf9ht-37" edge="1">
          <mxGeometry relative="1" as="geometry" />
        </mxCell>
        <mxCell id="SsQsYeumKmcOSgVpf9ht-36" value="" style="ellipse;html=1;shape=startState;fillColor=#000000;strokeColor=#ff0000;" parent="1" vertex="1">
          <mxGeometry x="2270" y="-675" width="30" height="30" as="geometry" />
        </mxCell>
        <mxCell id="SsQsYeumKmcOSgVpf9ht-37" value="Authenticate" style="rounded=1;whiteSpace=wrap;html=1;arcSize=40;fontColor=#000000;fillColor=#ffffc0;strokeColor=#ff0000;" parent="1" vertex="1">
          <mxGeometry x="2350" y="-680" width="120" height="40" as="geometry" />
        </mxCell>
        <mxCell id="SsQsYeumKmcOSgVpf9ht-38" style="edgeStyle=orthogonalEdgeStyle;rounded=0;orthogonalLoop=1;jettySize=auto;html=1;exitX=1;exitY=0.5;exitDx=0;exitDy=0;exitPerimeter=0;" parent="1" source="SsQsYeumKmcOSgVpf9ht-39" target="SsQsYeumKmcOSgVpf9ht-41" edge="1">
          <mxGeometry relative="1" as="geometry" />
        </mxCell>
        <mxCell id="4-HbsVXTE3UwJC75fTxS-4" style="edgeStyle=orthogonalEdgeStyle;rounded=0;orthogonalLoop=1;jettySize=auto;html=1;" parent="1" source="SsQsYeumKmcOSgVpf9ht-39" edge="1">
          <mxGeometry relative="1" as="geometry">
            <mxPoint x="2320" y="-660" as="targetPoint" />
            <Array as="points">
              <mxPoint x="2550" y="-720" />
              <mxPoint x="2320" y="-720" />
            </Array>
          </mxGeometry>
        </mxCell>
        <mxCell id="SsQsYeumKmcOSgVpf9ht-39" value="" style="strokeWidth=2;html=1;shape=mxgraph.flowchart.decision;whiteSpace=wrap;" parent="1" vertex="1">
          <mxGeometry x="2520" y="-690" width="60" height="60" as="geometry" />
        </mxCell>
        <mxCell id="SsQsYeumKmcOSgVpf9ht-40" style="edgeStyle=orthogonalEdgeStyle;rounded=0;orthogonalLoop=1;jettySize=auto;html=1;entryX=0.036;entryY=0.507;entryDx=0;entryDy=0;entryPerimeter=0;" parent="1" source="SsQsYeumKmcOSgVpf9ht-37" target="SsQsYeumKmcOSgVpf9ht-39" edge="1">
          <mxGeometry relative="1" as="geometry" />
        </mxCell>
        <mxCell id="SsQsYeumKmcOSgVpf9ht-41" value="Upload File" style="rounded=1;whiteSpace=wrap;html=1;arcSize=40;fontColor=#000000;fillColor=#ffffc0;strokeColor=#ff0000;" parent="1" vertex="1">
          <mxGeometry x="2610" y="-680" width="120" height="40" as="geometry" />
        </mxCell>
        <mxCell id="SsQsYeumKmcOSgVpf9ht-61" style="edgeStyle=orthogonalEdgeStyle;rounded=0;orthogonalLoop=1;jettySize=auto;html=1;" parent="1" source="SsQsYeumKmcOSgVpf9ht-43" target="SsQsYeumKmcOSgVpf9ht-60" edge="1">
          <mxGeometry relative="1" as="geometry" />
        </mxCell>
        <mxCell id="SsQsYeumKmcOSgVpf9ht-43" value="" style="strokeWidth=2;html=1;shape=mxgraph.flowchart.decision;whiteSpace=wrap;" parent="1" vertex="1">
          <mxGeometry x="2760" y="-690" width="60" height="60" as="geometry" />
        </mxCell>
        <mxCell id="SsQsYeumKmcOSgVpf9ht-44" style="edgeStyle=orthogonalEdgeStyle;rounded=0;orthogonalLoop=1;jettySize=auto;html=1;exitX=1;exitY=0.5;exitDx=0;exitDy=0;entryX=0.071;entryY=0.516;entryDx=0;entryDy=0;entryPerimeter=0;" parent="1" source="SsQsYeumKmcOSgVpf9ht-41" target="SsQsYeumKmcOSgVpf9ht-43" edge="1">
          <mxGeometry relative="1" as="geometry" />
        </mxCell>
        <mxCell id="SsQsYeumKmcOSgVpf9ht-47" value="" style="ellipse;html=1;shape=endState;fillColor=#000000;strokeColor=#ff0000;" parent="1" vertex="1">
          <mxGeometry x="3200" y="-675" width="30" height="30" as="geometry" />
        </mxCell>
        <mxCell id="SsQsYeumKmcOSgVpf9ht-51" value="Y" style="text;html=1;strokeColor=none;fillColor=none;align=center;verticalAlign=middle;whiteSpace=wrap;rounded=0;" parent="1" vertex="1">
          <mxGeometry x="2562" y="-665" width="60" height="30" as="geometry" />
        </mxCell>
        <mxCell id="SsQsYeumKmcOSgVpf9ht-53" value="PDF Exractor" style="shape=umlFrame;whiteSpace=wrap;html=1;pointerEvents=0;width=90;height=30;" parent="1" vertex="1">
          <mxGeometry x="2240" y="-520" width="1000" height="170" as="geometry" />
        </mxCell>
        <mxCell id="SsQsYeumKmcOSgVpf9ht-55" value="Elastic Search" style="shape=umlFrame;whiteSpace=wrap;html=1;pointerEvents=0;width=90;height=30;" parent="1" vertex="1">
          <mxGeometry x="2240" y="-280" width="1000" height="170" as="geometry" />
        </mxCell>
        <mxCell id="SsQsYeumKmcOSgVpf9ht-63" style="edgeStyle=orthogonalEdgeStyle;rounded=0;orthogonalLoop=1;jettySize=auto;html=1;" parent="1" source="SsQsYeumKmcOSgVpf9ht-60" target="SsQsYeumKmcOSgVpf9ht-62" edge="1">
          <mxGeometry relative="1" as="geometry" />
        </mxCell>
        <mxCell id="SsQsYeumKmcOSgVpf9ht-60" value="PDF File" style="html=1;whiteSpace=wrap;fillColor=#6a00ff;fontColor=#ffffff;strokeColor=#3700CC;" parent="1" vertex="1">
          <mxGeometry x="2735" y="-580" width="110" height="50" as="geometry" />
        </mxCell>
        <mxCell id="SsQsYeumKmcOSgVpf9ht-62" value="Extract infos" style="rounded=1;whiteSpace=wrap;html=1;arcSize=40;fontColor=#000000;fillColor=#ffffc0;strokeColor=#ff0000;" parent="1" vertex="1">
          <mxGeometry x="2730" y="-470" width="120" height="40" as="geometry" />
        </mxCell>
        <mxCell id="SsQsYeumKmcOSgVpf9ht-68" style="edgeStyle=orthogonalEdgeStyle;rounded=0;orthogonalLoop=1;jettySize=auto;html=1;entryX=0.5;entryY=0;entryDx=0;entryDy=0;" parent="1" source="SsQsYeumKmcOSgVpf9ht-64" target="SsQsYeumKmcOSgVpf9ht-67" edge="1">
          <mxGeometry relative="1" as="geometry" />
        </mxCell>
        <mxCell id="SsQsYeumKmcOSgVpf9ht-64" value="" style="strokeWidth=2;html=1;shape=mxgraph.flowchart.decision;whiteSpace=wrap;" parent="1" vertex="1">
          <mxGeometry x="2860" y="-480" width="60" height="60" as="geometry" />
        </mxCell>
        <mxCell id="SsQsYeumKmcOSgVpf9ht-66" style="edgeStyle=orthogonalEdgeStyle;rounded=0;orthogonalLoop=1;jettySize=auto;html=1;exitX=1;exitY=0.5;exitDx=0;exitDy=0;entryX=0;entryY=0.5;entryDx=0;entryDy=0;entryPerimeter=0;" parent="1" source="SsQsYeumKmcOSgVpf9ht-62" target="SsQsYeumKmcOSgVpf9ht-64" edge="1">
          <mxGeometry relative="1" as="geometry" />
        </mxCell>
        <mxCell id="SsQsYeumKmcOSgVpf9ht-70" style="edgeStyle=orthogonalEdgeStyle;rounded=0;orthogonalLoop=1;jettySize=auto;html=1;entryX=0.5;entryY=0;entryDx=0;entryDy=0;" parent="1" source="SsQsYeumKmcOSgVpf9ht-67" target="SsQsYeumKmcOSgVpf9ht-69" edge="1">
          <mxGeometry relative="1" as="geometry" />
        </mxCell>
        <mxCell id="SsQsYeumKmcOSgVpf9ht-67" value="Infos Fields" style="html=1;whiteSpace=wrap;fillColor=#6a00ff;fontColor=#ffffff;strokeColor=#3700CC;" parent="1" vertex="1">
          <mxGeometry x="2835" y="-340" width="110" height="50" as="geometry" />
        </mxCell>
        <mxCell id="SsQsYeumKmcOSgVpf9ht-69" value="Index infos" style="rounded=1;whiteSpace=wrap;html=1;arcSize=40;fontColor=#000000;fillColor=#ffffc0;strokeColor=#ff0000;" parent="1" vertex="1">
          <mxGeometry x="2830" y="-220" width="120" height="40" as="geometry" />
        </mxCell>
        <mxCell id="SsQsYeumKmcOSgVpf9ht-71" value="Merge" style="strokeWidth=2;html=1;shape=mxgraph.flowchart.decision;whiteSpace=wrap;" parent="1" vertex="1">
          <mxGeometry x="2970" y="-689" width="60" height="60" as="geometry" />
        </mxCell>
        <mxCell id="SsQsYeumKmcOSgVpf9ht-72" style="edgeStyle=orthogonalEdgeStyle;rounded=0;orthogonalLoop=1;jettySize=auto;html=1;exitX=1;exitY=0.5;exitDx=0;exitDy=0;entryX=0.5;entryY=1;entryDx=0;entryDy=0;entryPerimeter=0;" parent="1" source="SsQsYeumKmcOSgVpf9ht-69" target="SsQsYeumKmcOSgVpf9ht-71" edge="1">
          <mxGeometry relative="1" as="geometry" />
        </mxCell>
        <mxCell id="SsQsYeumKmcOSgVpf9ht-73" style="edgeStyle=orthogonalEdgeStyle;rounded=0;orthogonalLoop=1;jettySize=auto;html=1;exitX=1;exitY=0.5;exitDx=0;exitDy=0;exitPerimeter=0;entryX=0;entryY=0.5;entryDx=0;entryDy=0;entryPerimeter=0;" parent="1" source="SsQsYeumKmcOSgVpf9ht-64" target="SsQsYeumKmcOSgVpf9ht-71" edge="1">
          <mxGeometry relative="1" as="geometry" />
        </mxCell>
        <mxCell id="SsQsYeumKmcOSgVpf9ht-74" style="edgeStyle=orthogonalEdgeStyle;rounded=0;orthogonalLoop=1;jettySize=auto;html=1;exitX=1;exitY=0.5;exitDx=0;exitDy=0;exitPerimeter=0;entryX=0.5;entryY=0;entryDx=0;entryDy=0;entryPerimeter=0;" parent="1" source="SsQsYeumKmcOSgVpf9ht-43" target="SsQsYeumKmcOSgVpf9ht-71" edge="1">
          <mxGeometry relative="1" as="geometry" />
        </mxCell>
        <mxCell id="SsQsYeumKmcOSgVpf9ht-78" value="Notify Admin" style="rounded=1;whiteSpace=wrap;html=1;arcSize=40;fontColor=#000000;fillColor=#ffffc0;strokeColor=#ff0000;" parent="1" vertex="1">
          <mxGeometry x="3050" y="-680" width="120" height="40" as="geometry" />
        </mxCell>
        <mxCell id="SsQsYeumKmcOSgVpf9ht-79" style="edgeStyle=orthogonalEdgeStyle;rounded=0;orthogonalLoop=1;jettySize=auto;html=1;exitX=1;exitY=0.5;exitDx=0;exitDy=0;exitPerimeter=0;entryX=0.056;entryY=0.582;entryDx=0;entryDy=0;entryPerimeter=0;" parent="1" source="SsQsYeumKmcOSgVpf9ht-71" target="SsQsYeumKmcOSgVpf9ht-78" edge="1">
          <mxGeometry relative="1" as="geometry" />
        </mxCell>
        <mxCell id="SsQsYeumKmcOSgVpf9ht-81" style="edgeStyle=orthogonalEdgeStyle;rounded=0;orthogonalLoop=1;jettySize=auto;html=1;entryX=-0.003;entryY=0.529;entryDx=0;entryDy=0;entryPerimeter=0;" parent="1" source="SsQsYeumKmcOSgVpf9ht-78" target="SsQsYeumKmcOSgVpf9ht-47" edge="1">
          <mxGeometry relative="1" as="geometry" />
        </mxCell>
        <mxCell id="SsQsYeumKmcOSgVpf9ht-82" value="Y" style="text;html=1;strokeColor=none;fillColor=none;align=center;verticalAlign=middle;whiteSpace=wrap;rounded=0;" parent="1" vertex="1">
          <mxGeometry x="2742" y="-635" width="60" height="30" as="geometry" />
        </mxCell>
        <mxCell id="SsQsYeumKmcOSgVpf9ht-83" value="N" style="text;html=1;strokeColor=none;fillColor=none;align=center;verticalAlign=middle;whiteSpace=wrap;rounded=0;" parent="1" vertex="1">
          <mxGeometry x="2802" y="-685" width="60" height="30" as="geometry" />
        </mxCell>
        <mxCell id="SsQsYeumKmcOSgVpf9ht-84" value="Y" style="text;html=1;strokeColor=none;fillColor=none;align=center;verticalAlign=middle;whiteSpace=wrap;rounded=0;" parent="1" vertex="1">
          <mxGeometry x="2846" y="-427" width="60" height="30" as="geometry" />
        </mxCell>
        <mxCell id="SsQsYeumKmcOSgVpf9ht-85" value="N" style="text;html=1;strokeColor=none;fillColor=none;align=center;verticalAlign=middle;whiteSpace=wrap;rounded=0;" parent="1" vertex="1">
          <mxGeometry x="2901" y="-475" width="60" height="30" as="geometry" />
        </mxCell>
        <mxCell id="SsQsYeumKmcOSgVpf9ht-86" value="Moderator" style="shape=umlFrame;whiteSpace=wrap;html=1;pointerEvents=0;width=90;height=30;" parent="1" vertex="1">
          <mxGeometry x="1150" y="-490" width="1010" height="170" as="geometry" />
        </mxCell>
        <mxCell id="SsQsYeumKmcOSgVpf9ht-87" style="edgeStyle=orthogonalEdgeStyle;rounded=0;orthogonalLoop=1;jettySize=auto;html=1;" parent="1" source="SsQsYeumKmcOSgVpf9ht-88" target="SsQsYeumKmcOSgVpf9ht-89" edge="1">
          <mxGeometry relative="1" as="geometry" />
        </mxCell>
        <mxCell id="SsQsYeumKmcOSgVpf9ht-88" value="" style="ellipse;html=1;shape=startState;fillColor=#000000;strokeColor=#ff0000;" parent="1" vertex="1">
          <mxGeometry x="1160" y="-405" width="30" height="30" as="geometry" />
        </mxCell>
        <mxCell id="SsQsYeumKmcOSgVpf9ht-89" value="Authenticate" style="rounded=1;whiteSpace=wrap;html=1;arcSize=40;fontColor=#000000;fillColor=#ffffc0;strokeColor=#ff0000;" parent="1" vertex="1">
          <mxGeometry x="1210" y="-410" width="120" height="40" as="geometry" />
        </mxCell>
        <mxCell id="SsQsYeumKmcOSgVpf9ht-157" style="edgeStyle=orthogonalEdgeStyle;rounded=0;orthogonalLoop=1;jettySize=auto;html=1;entryX=0;entryY=0.5;entryDx=0;entryDy=0;" parent="1" source="SsQsYeumKmcOSgVpf9ht-91" target="SsQsYeumKmcOSgVpf9ht-122" edge="1">
          <mxGeometry relative="1" as="geometry" />
        </mxCell>
        <mxCell id="4-HbsVXTE3UwJC75fTxS-1" style="edgeStyle=orthogonalEdgeStyle;rounded=0;orthogonalLoop=1;jettySize=auto;html=1;" parent="1" source="SsQsYeumKmcOSgVpf9ht-91" edge="1">
          <mxGeometry relative="1" as="geometry">
            <mxPoint x="1200" y="-390" as="targetPoint" />
            <Array as="points">
              <mxPoint x="1380" y="-440" />
              <mxPoint x="1200" y="-440" />
            </Array>
          </mxGeometry>
        </mxCell>
        <mxCell id="SsQsYeumKmcOSgVpf9ht-91" value="" style="strokeWidth=2;html=1;shape=mxgraph.flowchart.decision;whiteSpace=wrap;" parent="1" vertex="1">
          <mxGeometry x="1350" y="-420" width="60" height="60" as="geometry" />
        </mxCell>
        <mxCell id="SsQsYeumKmcOSgVpf9ht-97" value="" style="ellipse;html=1;shape=endState;fillColor=#000000;strokeColor=#ff0000;" parent="1" vertex="1">
          <mxGeometry x="2100" y="-410" width="30" height="30" as="geometry" />
        </mxCell>
        <mxCell id="SsQsYeumKmcOSgVpf9ht-100" value="Elastic Search" style="shape=umlFrame;whiteSpace=wrap;html=1;pointerEvents=0;width=90;height=30;" parent="1" vertex="1">
          <mxGeometry x="1150" y="-250" width="1010" height="170" as="geometry" />
        </mxCell>
        <mxCell id="SsQsYeumKmcOSgVpf9ht-158" style="edgeStyle=orthogonalEdgeStyle;rounded=0;orthogonalLoop=1;jettySize=auto;html=1;" parent="1" source="SsQsYeumKmcOSgVpf9ht-122" target="SsQsYeumKmcOSgVpf9ht-123" edge="1">
          <mxGeometry relative="1" as="geometry">
            <Array as="points">
              <mxPoint x="1545" y="-159" />
            </Array>
          </mxGeometry>
        </mxCell>
        <mxCell id="SsQsYeumKmcOSgVpf9ht-122" value="Search" style="rounded=1;whiteSpace=wrap;html=1;arcSize=40;fontColor=#000000;fillColor=#ffffc0;strokeColor=#ff0000;" parent="1" vertex="1">
          <mxGeometry x="1399.98" y="-179" width="120" height="40" as="geometry" />
        </mxCell>
        <mxCell id="SsQsYeumKmcOSgVpf9ht-136" style="edgeStyle=orthogonalEdgeStyle;rounded=0;orthogonalLoop=1;jettySize=auto;html=1;exitX=0.5;exitY=0;exitDx=0;exitDy=0;entryX=0;entryY=0.5;entryDx=0;entryDy=0;" parent="1" source="SsQsYeumKmcOSgVpf9ht-123" target="SsQsYeumKmcOSgVpf9ht-135" edge="1">
          <mxGeometry relative="1" as="geometry" />
        </mxCell>
        <mxCell id="SsQsYeumKmcOSgVpf9ht-123" value="JSON Object" style="html=1;whiteSpace=wrap;fillColor=#6a00ff;fontColor=#ffffff;strokeColor=#3700CC;" parent="1" vertex="1">
          <mxGeometry x="1490" y="-304" width="110" height="50" as="geometry" />
        </mxCell>
        <mxCell id="SsQsYeumKmcOSgVpf9ht-127" value="" style="edgeStyle=orthogonalEdgeStyle;rounded=0;orthogonalLoop=1;jettySize=auto;html=1;" parent="1" source="SsQsYeumKmcOSgVpf9ht-22" target="SsQsYeumKmcOSgVpf9ht-125" edge="1">
          <mxGeometry relative="1" as="geometry">
            <mxPoint x="1890" y="-658.5" as="sourcePoint" />
            <mxPoint x="2050" y="-657.5" as="targetPoint" />
          </mxGeometry>
        </mxCell>
        <mxCell id="SsQsYeumKmcOSgVpf9ht-125" value="Merge" style="strokeWidth=2;html=1;shape=mxgraph.flowchart.decision;whiteSpace=wrap;" parent="1" vertex="1">
          <mxGeometry x="1940" y="-688.5" width="60" height="60" as="geometry" />
        </mxCell>
        <mxCell id="SsQsYeumKmcOSgVpf9ht-128" style="edgeStyle=orthogonalEdgeStyle;rounded=0;orthogonalLoop=1;jettySize=auto;html=1;entryX=0.5;entryY=0;entryDx=0;entryDy=0;entryPerimeter=0;" parent="1" source="SsQsYeumKmcOSgVpf9ht-20" target="SsQsYeumKmcOSgVpf9ht-125" edge="1">
          <mxGeometry relative="1" as="geometry">
            <Array as="points">
              <mxPoint x="1700" y="-708.5" />
              <mxPoint x="1970" y="-708.5" />
            </Array>
          </mxGeometry>
        </mxCell>
        <mxCell id="SsQsYeumKmcOSgVpf9ht-132" value="Y" style="text;html=1;strokeColor=none;fillColor=none;align=center;verticalAlign=middle;whiteSpace=wrap;rounded=0;" parent="1" vertex="1">
          <mxGeometry x="1339.98" y="-368" width="60" height="30" as="geometry" />
        </mxCell>
        <mxCell id="SsQsYeumKmcOSgVpf9ht-135" value="Content Verification" style="rounded=1;whiteSpace=wrap;html=1;arcSize=40;fontColor=#000000;fillColor=#ffffc0;strokeColor=#ff0000;" parent="1" vertex="1">
          <mxGeometry x="1570" y="-415" width="120" height="40" as="geometry" />
        </mxCell>
        <mxCell id="SsQsYeumKmcOSgVpf9ht-147" style="edgeStyle=orthogonalEdgeStyle;rounded=0;orthogonalLoop=1;jettySize=auto;html=1;" parent="1" source="SsQsYeumKmcOSgVpf9ht-138" target="SsQsYeumKmcOSgVpf9ht-145" edge="1">
          <mxGeometry relative="1" as="geometry">
            <Array as="points">
              <mxPoint x="1740" y="-441" />
            </Array>
          </mxGeometry>
        </mxCell>
        <mxCell id="SsQsYeumKmcOSgVpf9ht-138" value="&lt;font style=&quot;font-size: 10px;&quot;&gt;lot of&amp;nbsp;&lt;br&gt;errors&lt;/font&gt;" style="strokeWidth=2;html=1;shape=mxgraph.flowchart.decision;whiteSpace=wrap;align=center;" parent="1" vertex="1">
          <mxGeometry x="1710" y="-425" width="60" height="60" as="geometry" />
        </mxCell>
        <mxCell id="SsQsYeumKmcOSgVpf9ht-139" style="edgeStyle=orthogonalEdgeStyle;rounded=0;orthogonalLoop=1;jettySize=auto;html=1;entryX=0;entryY=0.5;entryDx=0;entryDy=0;entryPerimeter=0;" parent="1" source="SsQsYeumKmcOSgVpf9ht-135" target="SsQsYeumKmcOSgVpf9ht-138" edge="1">
          <mxGeometry relative="1" as="geometry" />
        </mxCell>
        <mxCell id="SsQsYeumKmcOSgVpf9ht-140" value="Delete Article" style="rounded=1;whiteSpace=wrap;html=1;arcSize=40;fontColor=#000000;fillColor=#ffffc0;strokeColor=#ff0000;" parent="1" vertex="1">
          <mxGeometry x="1800" y="-385" width="120" height="40" as="geometry" />
        </mxCell>
        <mxCell id="SsQsYeumKmcOSgVpf9ht-141" style="edgeStyle=orthogonalEdgeStyle;rounded=0;orthogonalLoop=1;jettySize=auto;html=1;entryX=0.004;entryY=0.597;entryDx=0;entryDy=0;entryPerimeter=0;" parent="1" source="SsQsYeumKmcOSgVpf9ht-138" target="SsQsYeumKmcOSgVpf9ht-140" edge="1">
          <mxGeometry relative="1" as="geometry" />
        </mxCell>
        <mxCell id="SsQsYeumKmcOSgVpf9ht-144" style="edgeStyle=orthogonalEdgeStyle;rounded=0;orthogonalLoop=1;jettySize=auto;html=1;entryX=0;entryY=0.5;entryDx=0;entryDy=0;entryPerimeter=0;" parent="1" target="SsQsYeumKmcOSgVpf9ht-91" edge="1">
          <mxGeometry relative="1" as="geometry">
            <mxPoint x="1320" y="-390" as="sourcePoint" />
          </mxGeometry>
        </mxCell>
        <mxCell id="SsQsYeumKmcOSgVpf9ht-153" style="edgeStyle=orthogonalEdgeStyle;rounded=0;orthogonalLoop=1;jettySize=auto;html=1;" parent="1" target="SsQsYeumKmcOSgVpf9ht-150" edge="1">
          <mxGeometry relative="1" as="geometry">
            <mxPoint x="1890" y="-436.9333333333334" as="sourcePoint" />
            <Array as="points">
              <mxPoint x="1940" y="-437" />
            </Array>
          </mxGeometry>
        </mxCell>
        <mxCell id="SsQsYeumKmcOSgVpf9ht-145" value="Correct infos" style="rounded=1;whiteSpace=wrap;html=1;arcSize=40;fontColor=#000000;fillColor=#ffffc0;strokeColor=#ff0000;" parent="1" vertex="1">
          <mxGeometry x="1800" y="-457" width="120" height="40" as="geometry" />
        </mxCell>
        <mxCell id="SsQsYeumKmcOSgVpf9ht-148" value="Y" style="text;html=1;strokeColor=none;fillColor=none;align=center;verticalAlign=middle;whiteSpace=wrap;rounded=0;" parent="1" vertex="1">
          <mxGeometry x="1750" y="-399" width="60" height="30" as="geometry" />
        </mxCell>
        <mxCell id="SsQsYeumKmcOSgVpf9ht-149" value="N" style="text;html=1;strokeColor=none;fillColor=none;align=center;verticalAlign=middle;whiteSpace=wrap;rounded=0;" parent="1" vertex="1">
          <mxGeometry x="1702" y="-446" width="60" height="30" as="geometry" />
        </mxCell>
        <mxCell id="SsQsYeumKmcOSgVpf9ht-152" style="edgeStyle=orthogonalEdgeStyle;rounded=0;orthogonalLoop=1;jettySize=auto;html=1;" parent="1" source="SsQsYeumKmcOSgVpf9ht-150" target="SsQsYeumKmcOSgVpf9ht-151" edge="1">
          <mxGeometry relative="1" as="geometry" />
        </mxCell>
        <mxCell id="SsQsYeumKmcOSgVpf9ht-150" value="Infos Fields" style="html=1;whiteSpace=wrap;fillColor=#6a00ff;fontColor=#ffffff;strokeColor=#3700CC;" parent="1" vertex="1">
          <mxGeometry x="1885" y="-311" width="110" height="50" as="geometry" />
        </mxCell>
        <mxCell id="SsQsYeumKmcOSgVpf9ht-151" value="Index infos" style="rounded=1;whiteSpace=wrap;html=1;arcSize=40;fontColor=#000000;fillColor=#ffffc0;strokeColor=#ff0000;" parent="1" vertex="1">
          <mxGeometry x="1880" y="-190" width="120" height="40" as="geometry" />
        </mxCell>
        <mxCell id="SsQsYeumKmcOSgVpf9ht-243" value="" style="edgeStyle=orthogonalEdgeStyle;rounded=0;orthogonalLoop=1;jettySize=auto;html=1;" parent="1" source="SsQsYeumKmcOSgVpf9ht-159" target="SsQsYeumKmcOSgVpf9ht-97" edge="1">
          <mxGeometry relative="1" as="geometry" />
        </mxCell>
        <mxCell id="SsQsYeumKmcOSgVpf9ht-159" value="Merge" style="strokeWidth=2;html=1;shape=mxgraph.flowchart.decision;whiteSpace=wrap;" parent="1" vertex="1">
          <mxGeometry x="2000" y="-425" width="60" height="60" as="geometry" />
        </mxCell>
        <mxCell id="SsQsYeumKmcOSgVpf9ht-161" style="edgeStyle=orthogonalEdgeStyle;rounded=0;orthogonalLoop=1;jettySize=auto;html=1;entryX=0.5;entryY=1;entryDx=0;entryDy=0;entryPerimeter=0;" parent="1" source="SsQsYeumKmcOSgVpf9ht-151" target="SsQsYeumKmcOSgVpf9ht-159" edge="1">
          <mxGeometry relative="1" as="geometry">
            <Array as="points">
              <mxPoint x="2030" y="-170" />
            </Array>
          </mxGeometry>
        </mxCell>
        <mxCell id="SsQsYeumKmcOSgVpf9ht-162" style="edgeStyle=orthogonalEdgeStyle;rounded=0;orthogonalLoop=1;jettySize=auto;html=1;entryX=0;entryY=0.5;entryDx=0;entryDy=0;entryPerimeter=0;" parent="1" source="SsQsYeumKmcOSgVpf9ht-140" target="SsQsYeumKmcOSgVpf9ht-159" edge="1">
          <mxGeometry relative="1" as="geometry" />
        </mxCell>
        <mxCell id="SsQsYeumKmcOSgVpf9ht-164" value="User" style="shape=umlFrame;whiteSpace=wrap;html=1;pointerEvents=0;width=90;height=30;" parent="1" vertex="1">
          <mxGeometry x="3320" y="-740" width="1040" height="281" as="geometry" />
        </mxCell>
        <mxCell id="SsQsYeumKmcOSgVpf9ht-165" style="edgeStyle=orthogonalEdgeStyle;rounded=0;orthogonalLoop=1;jettySize=auto;html=1;" parent="1" target="SsQsYeumKmcOSgVpf9ht-167" edge="1">
          <mxGeometry relative="1" as="geometry">
            <mxPoint x="3360" y="-640" as="sourcePoint" />
          </mxGeometry>
        </mxCell>
        <mxCell id="SsQsYeumKmcOSgVpf9ht-166" value="" style="ellipse;html=1;shape=startState;fillColor=#000000;strokeColor=#ff0000;" parent="1" vertex="1">
          <mxGeometry x="3340" y="-655" width="30" height="30" as="geometry" />
        </mxCell>
        <mxCell id="SsQsYeumKmcOSgVpf9ht-167" value="Authenticate" style="rounded=1;whiteSpace=wrap;html=1;arcSize=40;fontColor=#000000;fillColor=#ffffc0;strokeColor=#ff0000;" parent="1" vertex="1">
          <mxGeometry x="3380" y="-660" width="100" height="40" as="geometry" />
        </mxCell>
        <mxCell id="SsQsYeumKmcOSgVpf9ht-171" value="Elastic Search" style="shape=umlFrame;whiteSpace=wrap;html=1;pointerEvents=0;width=90;height=30;" parent="1" vertex="1">
          <mxGeometry x="3320" y="-379" width="1040" height="120" as="geometry" />
        </mxCell>
        <mxCell id="SsQsYeumKmcOSgVpf9ht-202" style="edgeStyle=orthogonalEdgeStyle;rounded=0;orthogonalLoop=1;jettySize=auto;html=1;entryX=0.5;entryY=0;entryDx=0;entryDy=0;" parent="1" target="SsQsYeumKmcOSgVpf9ht-200" edge="1">
          <mxGeometry relative="1" as="geometry">
            <mxPoint x="3620" y="-620" as="sourcePoint" />
          </mxGeometry>
        </mxCell>
        <mxCell id="SsQsYeumKmcOSgVpf9ht-195" value="Search" style="rounded=1;whiteSpace=wrap;html=1;arcSize=40;fontColor=#000000;fillColor=#ffffc0;strokeColor=#ff0000;" parent="1" vertex="1">
          <mxGeometry x="3590" y="-660" width="60" height="40" as="geometry" />
        </mxCell>
        <mxCell id="SsQsYeumKmcOSgVpf9ht-198" style="edgeStyle=orthogonalEdgeStyle;rounded=0;orthogonalLoop=1;jettySize=auto;html=1;entryX=0;entryY=0.5;entryDx=0;entryDy=0;" parent="1" source="SsQsYeumKmcOSgVpf9ht-196" target="SsQsYeumKmcOSgVpf9ht-195" edge="1">
          <mxGeometry relative="1" as="geometry" />
        </mxCell>
        <mxCell id="4-HbsVXTE3UwJC75fTxS-6" style="edgeStyle=orthogonalEdgeStyle;rounded=0;orthogonalLoop=1;jettySize=auto;html=1;entryX=1;entryY=0.5;entryDx=0;entryDy=0;" parent="1" source="SsQsYeumKmcOSgVpf9ht-196" target="SsQsYeumKmcOSgVpf9ht-166" edge="1">
          <mxGeometry relative="1" as="geometry">
            <Array as="points">
              <mxPoint x="3530" y="-690" />
              <mxPoint x="3370" y="-690" />
            </Array>
          </mxGeometry>
        </mxCell>
        <mxCell id="SsQsYeumKmcOSgVpf9ht-196" value="" style="strokeWidth=2;html=1;shape=mxgraph.flowchart.decision;whiteSpace=wrap;" parent="1" vertex="1">
          <mxGeometry x="3500" y="-670" width="60" height="60" as="geometry" />
        </mxCell>
        <mxCell id="SsQsYeumKmcOSgVpf9ht-197" style="edgeStyle=orthogonalEdgeStyle;rounded=0;orthogonalLoop=1;jettySize=auto;html=1;entryX=0;entryY=0.5;entryDx=0;entryDy=0;entryPerimeter=0;" parent="1" target="SsQsYeumKmcOSgVpf9ht-196" edge="1">
          <mxGeometry relative="1" as="geometry">
            <mxPoint x="3450" y="-640" as="sourcePoint" />
          </mxGeometry>
        </mxCell>
        <mxCell id="SsQsYeumKmcOSgVpf9ht-207" style="edgeStyle=orthogonalEdgeStyle;rounded=0;orthogonalLoop=1;jettySize=auto;html=1;entryX=0;entryY=0.5;entryDx=0;entryDy=0;" parent="1" source="SsQsYeumKmcOSgVpf9ht-200" target="SsQsYeumKmcOSgVpf9ht-204" edge="1">
          <mxGeometry relative="1" as="geometry" />
        </mxCell>
        <mxCell id="SsQsYeumKmcOSgVpf9ht-200" value="Query of Search" style="html=1;whiteSpace=wrap;fillColor=#6a00ff;fontColor=#ffffff;strokeColor=#3700CC;" parent="1" vertex="1">
          <mxGeometry x="3565" y="-445" width="110" height="50" as="geometry" />
        </mxCell>
        <mxCell id="SsQsYeumKmcOSgVpf9ht-253" style="edgeStyle=orthogonalEdgeStyle;rounded=0;orthogonalLoop=1;jettySize=auto;html=1;" parent="1" source="SsQsYeumKmcOSgVpf9ht-204" target="SsQsYeumKmcOSgVpf9ht-205" edge="1">
          <mxGeometry relative="1" as="geometry" />
        </mxCell>
        <mxCell id="SsQsYeumKmcOSgVpf9ht-204" value="Search" style="rounded=1;whiteSpace=wrap;html=1;arcSize=40;fontColor=#000000;fillColor=#ffffc0;strokeColor=#ff0000;" parent="1" vertex="1">
          <mxGeometry x="3650" y="-319" width="80" height="40" as="geometry" />
        </mxCell>
        <mxCell id="SsQsYeumKmcOSgVpf9ht-251" style="edgeStyle=orthogonalEdgeStyle;rounded=0;orthogonalLoop=1;jettySize=auto;html=1;entryX=0.5;entryY=0;entryDx=0;entryDy=0;" parent="1" source="SsQsYeumKmcOSgVpf9ht-205" target="SsQsYeumKmcOSgVpf9ht-210" edge="1">
          <mxGeometry relative="1" as="geometry" />
        </mxCell>
        <mxCell id="SsQsYeumKmcOSgVpf9ht-205" value="JSON Object" style="html=1;whiteSpace=wrap;fillColor=#6a00ff;fontColor=#ffffff;strokeColor=#3700CC;" parent="1" vertex="1">
          <mxGeometry x="3635" y="-239" width="110" height="50" as="geometry" />
        </mxCell>
        <mxCell id="SsQsYeumKmcOSgVpf9ht-209" value="System" style="shape=umlFrame;whiteSpace=wrap;html=1;pointerEvents=0;width=90;height=30;" parent="1" vertex="1">
          <mxGeometry x="3320" y="-229" width="1040" height="170" as="geometry" />
        </mxCell>
        <mxCell id="SsQsYeumKmcOSgVpf9ht-234" style="edgeStyle=orthogonalEdgeStyle;rounded=0;orthogonalLoop=1;jettySize=auto;html=1;" parent="1" target="SsQsYeumKmcOSgVpf9ht-228" edge="1">
          <mxGeometry relative="1" as="geometry">
            <mxPoint x="3720" y="-108.95652173913027" as="sourcePoint" />
            <Array as="points">
              <mxPoint x="3770" y="-109" />
            </Array>
          </mxGeometry>
        </mxCell>
        <mxCell id="SsQsYeumKmcOSgVpf9ht-210" value="Result Display" style="rounded=1;whiteSpace=wrap;html=1;arcSize=40;fontColor=#000000;fillColor=#ffffc0;strokeColor=#ff0000;" parent="1" vertex="1">
          <mxGeometry x="3660" y="-129" width="90" height="40" as="geometry" />
        </mxCell>
        <mxCell id="SsQsYeumKmcOSgVpf9ht-218" value="N" style="text;html=1;strokeColor=none;fillColor=none;align=center;verticalAlign=middle;whiteSpace=wrap;rounded=0;" parent="1" vertex="1">
          <mxGeometry x="1364" y="-441" width="60" height="30" as="geometry" />
        </mxCell>
        <mxCell id="SsQsYeumKmcOSgVpf9ht-220" value="Y" style="text;html=1;strokeColor=none;fillColor=none;align=center;verticalAlign=middle;whiteSpace=wrap;rounded=0;" parent="1" vertex="1">
          <mxGeometry x="3537" y="-646" width="60" height="30" as="geometry" />
        </mxCell>
        <mxCell id="SsQsYeumKmcOSgVpf9ht-222" value="Filter&lt;br&gt;opt" style="strokeWidth=2;html=1;shape=mxgraph.flowchart.decision;whiteSpace=wrap;" parent="1" vertex="1">
          <mxGeometry x="3780" y="-669" width="60" height="60" as="geometry" />
        </mxCell>
        <mxCell id="SsQsYeumKmcOSgVpf9ht-248" style="edgeStyle=orthogonalEdgeStyle;rounded=0;orthogonalLoop=1;jettySize=auto;html=1;entryX=0;entryY=0.5;entryDx=0;entryDy=0;" parent="1" source="SsQsYeumKmcOSgVpf9ht-227" target="SsQsYeumKmcOSgVpf9ht-245" edge="1">
          <mxGeometry relative="1" as="geometry" />
        </mxCell>
        <mxCell id="SsQsYeumKmcOSgVpf9ht-227" value="&lt;p style=&quot;line-height: 80%;&quot;&gt;&lt;font style=&quot;font-size: 9px;&quot;&gt;Details&lt;br&gt;Display&lt;/font&gt;&lt;/p&gt;" style="strokeWidth=2;html=1;shape=mxgraph.flowchart.decision;whiteSpace=wrap;" parent="1" vertex="1">
          <mxGeometry x="3990" y="-670" width="60" height="60" as="geometry" />
        </mxCell>
        <mxCell id="SsQsYeumKmcOSgVpf9ht-228" value="List of Articles" style="html=1;whiteSpace=wrap;fillColor=#6a00ff;fontColor=#ffffff;strokeColor=#3700CC;" parent="1" vertex="1">
          <mxGeometry x="3715" y="-445" width="110" height="50" as="geometry" />
        </mxCell>
        <mxCell id="SsQsYeumKmcOSgVpf9ht-231" value="Select Filters" style="rounded=1;whiteSpace=wrap;html=1;arcSize=40;fontColor=#000000;fillColor=#ffffc0;strokeColor=#ff0000;" parent="1" vertex="1">
          <mxGeometry x="3860" y="-660" width="100" height="40" as="geometry" />
        </mxCell>
        <mxCell id="SsQsYeumKmcOSgVpf9ht-237" style="edgeStyle=orthogonalEdgeStyle;rounded=0;orthogonalLoop=1;jettySize=auto;html=1;entryX=0;entryY=0.525;entryDx=0;entryDy=0;entryPerimeter=0;" parent="1" source="SsQsYeumKmcOSgVpf9ht-222" target="SsQsYeumKmcOSgVpf9ht-231" edge="1">
          <mxGeometry relative="1" as="geometry" />
        </mxCell>
        <mxCell id="SsQsYeumKmcOSgVpf9ht-244" value="" style="ellipse;html=1;shape=endState;fillColor=#000000;strokeColor=#ff0000;" parent="1" vertex="1">
          <mxGeometry x="4320" y="-550" width="30" height="30" as="geometry" />
        </mxCell>
        <mxCell id="SsQsYeumKmcOSgVpf9ht-245" value="Select Article" style="rounded=1;whiteSpace=wrap;html=1;arcSize=40;fontColor=#000000;fillColor=#ffffc0;strokeColor=#ff0000;" parent="1" vertex="1">
          <mxGeometry x="4070" y="-660" width="90" height="40" as="geometry" />
        </mxCell>
        <mxCell id="SsQsYeumKmcOSgVpf9ht-246" style="edgeStyle=orthogonalEdgeStyle;rounded=0;orthogonalLoop=1;jettySize=auto;html=1;entryX=0;entryY=0.5;entryDx=0;entryDy=0;entryPerimeter=0;" parent="1" source="SsQsYeumKmcOSgVpf9ht-231" target="SsQsYeumKmcOSgVpf9ht-227" edge="1">
          <mxGeometry relative="1" as="geometry" />
        </mxCell>
        <mxCell id="SsQsYeumKmcOSgVpf9ht-247" style="edgeStyle=orthogonalEdgeStyle;rounded=0;orthogonalLoop=1;jettySize=auto;html=1;entryX=0;entryY=0.5;entryDx=0;entryDy=0;entryPerimeter=0;" parent="1" source="SsQsYeumKmcOSgVpf9ht-222" target="SsQsYeumKmcOSgVpf9ht-227" edge="1">
          <mxGeometry relative="1" as="geometry">
            <Array as="points">
              <mxPoint x="3810" y="-699" />
              <mxPoint x="3990" y="-699" />
            </Array>
          </mxGeometry>
        </mxCell>
        <mxCell id="SsQsYeumKmcOSgVpf9ht-254" value="&lt;p style=&quot;line-height: 40%;&quot;&gt;&lt;font size=&quot;1&quot;&gt;Add to&lt;/font&gt;&lt;/p&gt;&lt;p style=&quot;line-height: 40%;&quot;&gt;&lt;font size=&quot;1&quot;&gt;&amp;nbsp;Fav&lt;/font&gt;&lt;/p&gt;" style="strokeWidth=2;html=1;shape=mxgraph.flowchart.decision;whiteSpace=wrap;" parent="1" vertex="1">
          <mxGeometry x="4190" y="-670" width="60" height="60" as="geometry" />
        </mxCell>
        <mxCell id="SsQsYeumKmcOSgVpf9ht-255" style="edgeStyle=orthogonalEdgeStyle;rounded=0;orthogonalLoop=1;jettySize=auto;html=1;entryX=-0.031;entryY=0.481;entryDx=0;entryDy=0;entryPerimeter=0;" parent="1" source="SsQsYeumKmcOSgVpf9ht-245" target="SsQsYeumKmcOSgVpf9ht-254" edge="1">
          <mxGeometry relative="1" as="geometry" />
        </mxCell>
        <mxCell id="SsQsYeumKmcOSgVpf9ht-273" style="edgeStyle=orthogonalEdgeStyle;rounded=0;orthogonalLoop=1;jettySize=auto;html=1;entryX=0;entryY=0.5;entryDx=0;entryDy=0;" parent="1" source="SsQsYeumKmcOSgVpf9ht-256" target="SsQsYeumKmcOSgVpf9ht-244" edge="1">
          <mxGeometry relative="1" as="geometry" />
        </mxCell>
        <mxCell id="SsQsYeumKmcOSgVpf9ht-256" value="&lt;p style=&quot;line-height: 40%;&quot;&gt;&lt;font size=&quot;1&quot;&gt;Merge&lt;/font&gt;&lt;/p&gt;" style="strokeWidth=2;html=1;shape=mxgraph.flowchart.decision;whiteSpace=wrap;" parent="1" vertex="1">
          <mxGeometry x="4240" y="-564" width="60" height="60" as="geometry" />
        </mxCell>
        <mxCell id="SsQsYeumKmcOSgVpf9ht-258" style="edgeStyle=orthogonalEdgeStyle;rounded=0;orthogonalLoop=1;jettySize=auto;html=1;entryX=-0.031;entryY=0.566;entryDx=0;entryDy=0;entryPerimeter=0;" parent="1" source="SsQsYeumKmcOSgVpf9ht-227" target="SsQsYeumKmcOSgVpf9ht-256" edge="1">
          <mxGeometry relative="1" as="geometry">
            <Array as="points">
              <mxPoint x="4020" y="-530" />
              <mxPoint x="4188" y="-530" />
            </Array>
          </mxGeometry>
        </mxCell>
        <mxCell id="SsQsYeumKmcOSgVpf9ht-261" value="Y" style="text;html=1;strokeColor=none;fillColor=none;align=center;verticalAlign=middle;whiteSpace=wrap;rounded=0;" parent="1" vertex="1">
          <mxGeometry x="3816" y="-664" width="60" height="30" as="geometry" />
        </mxCell>
        <mxCell id="SsQsYeumKmcOSgVpf9ht-263" value="N" style="text;html=1;strokeColor=none;fillColor=none;align=center;verticalAlign=middle;whiteSpace=wrap;rounded=0;" parent="1" vertex="1">
          <mxGeometry x="3770" y="-689" width="60" height="30" as="geometry" />
        </mxCell>
        <mxCell id="SsQsYeumKmcOSgVpf9ht-264" value="Y" style="text;html=1;strokeColor=none;fillColor=none;align=center;verticalAlign=middle;whiteSpace=wrap;rounded=0;" parent="1" vertex="1">
          <mxGeometry x="4026" y="-665" width="60" height="30" as="geometry" />
        </mxCell>
        <mxCell id="SsQsYeumKmcOSgVpf9ht-265" value="N" style="text;html=1;strokeColor=none;fillColor=none;align=center;verticalAlign=middle;whiteSpace=wrap;rounded=0;" parent="1" vertex="1">
          <mxGeometry x="3980" y="-618" width="60" height="30" as="geometry" />
        </mxCell>
        <mxCell id="SsQsYeumKmcOSgVpf9ht-267" style="edgeStyle=orthogonalEdgeStyle;rounded=0;orthogonalLoop=1;jettySize=auto;html=1;entryX=0;entryY=0.5;entryDx=0;entryDy=0;entryPerimeter=0;" parent="1" source="SsQsYeumKmcOSgVpf9ht-228" target="SsQsYeumKmcOSgVpf9ht-222" edge="1">
          <mxGeometry relative="1" as="geometry">
            <Array as="points">
              <mxPoint x="3770" y="-639" />
            </Array>
          </mxGeometry>
        </mxCell>
        <mxCell id="SsQsYeumKmcOSgVpf9ht-269" style="edgeStyle=orthogonalEdgeStyle;rounded=0;orthogonalLoop=1;jettySize=auto;html=1;entryX=0.5;entryY=1;entryDx=0;entryDy=0;entryPerimeter=0;" parent="1" source="SsQsYeumKmcOSgVpf9ht-254" target="SsQsYeumKmcOSgVpf9ht-256" edge="1">
          <mxGeometry relative="1" as="geometry" />
        </mxCell>
        <mxCell id="SsQsYeumKmcOSgVpf9ht-270" style="edgeStyle=orthogonalEdgeStyle;rounded=0;orthogonalLoop=1;jettySize=auto;html=1;entryX=0.5;entryY=0;entryDx=0;entryDy=0;entryPerimeter=0;" parent="1" source="SsQsYeumKmcOSgVpf9ht-254" target="SsQsYeumKmcOSgVpf9ht-256" edge="1">
          <mxGeometry relative="1" as="geometry">
            <Array as="points">
              <mxPoint x="4270" y="-640" />
            </Array>
          </mxGeometry>
        </mxCell>
        <mxCell id="SsQsYeumKmcOSgVpf9ht-271" value="Y" style="text;html=1;strokeColor=none;fillColor=none;align=center;verticalAlign=middle;whiteSpace=wrap;rounded=0;" parent="1" vertex="1">
          <mxGeometry x="4222" y="-666" width="60" height="30" as="geometry" />
        </mxCell>
        <mxCell id="SsQsYeumKmcOSgVpf9ht-272" value="N" style="text;html=1;strokeColor=none;fillColor=none;align=center;verticalAlign=middle;whiteSpace=wrap;rounded=0;" parent="1" vertex="1">
          <mxGeometry x="4180" y="-620" width="60" height="30" as="geometry" />
        </mxCell>
        <mxCell id="SsQsYeumKmcOSgVpf9ht-276" value="&lt;font style=&quot;font-size: 18px;&quot;&gt;Search for Article&lt;/font&gt;" style="text;html=1;strokeColor=none;fillColor=none;align=center;verticalAlign=middle;whiteSpace=wrap;rounded=0;" parent="1" vertex="1">
          <mxGeometry x="3750" y="-810" width="200" height="30" as="geometry" />
        </mxCell>
        <mxCell id="SsQsYeumKmcOSgVpf9ht-278" value="&lt;font style=&quot;font-size: 18px;&quot;&gt;File Upload&lt;/font&gt;" style="text;html=1;strokeColor=none;fillColor=none;align=center;verticalAlign=middle;whiteSpace=wrap;rounded=0;" parent="1" vertex="1">
          <mxGeometry x="2650" y="-820" width="200" height="30" as="geometry" />
        </mxCell>
        <mxCell id="SsQsYeumKmcOSgVpf9ht-279" value="&lt;font style=&quot;font-size: 18px;&quot;&gt;Moderator management&amp;nbsp;&lt;/font&gt;" style="text;html=1;strokeColor=none;fillColor=none;align=center;verticalAlign=middle;whiteSpace=wrap;rounded=0;" parent="1" vertex="1">
          <mxGeometry x="1540" y="-820" width="220" height="30" as="geometry" />
        </mxCell>
        <mxCell id="SsQsYeumKmcOSgVpf9ht-281" value="&lt;font style=&quot;font-size: 18px;&quot;&gt;Correction of information&lt;/font&gt;" style="text;html=1;strokeColor=none;fillColor=none;align=center;verticalAlign=middle;whiteSpace=wrap;rounded=0;" parent="1" vertex="1">
          <mxGeometry x="1530" y="-549" width="240" height="30" as="geometry" />
        </mxCell>
        <mxCell id="4-HbsVXTE3UwJC75fTxS-5" value="N" style="text;html=1;strokeColor=none;fillColor=none;align=center;verticalAlign=middle;whiteSpace=wrap;rounded=0;" parent="1" vertex="1">
          <mxGeometry x="2530" y="-713.5" width="60" height="30" as="geometry" />
        </mxCell>
        <mxCell id="4-HbsVXTE3UwJC75fTxS-8" value="N" style="text;html=1;strokeColor=none;fillColor=none;align=center;verticalAlign=middle;whiteSpace=wrap;rounded=0;" parent="1" vertex="1">
          <mxGeometry x="3509" y="-692" width="60" height="30" as="geometry" />
        </mxCell>
      </root>
    </mxGraphModel>
  </diagram>
</mxfile>
